<svg xmlns="http://www.w3.org/2000/svg" viewBox="0 0 64 64" role="img" aria-labelledby="title">
  <title>Espacio Saludable</title>
  <defs>
    <linearGradient id="g" x1="0%" y1="0%" x2="100%" y2="100%">
      <stop offset="0%" stop-color="#9ba88d"/>
      <stop offset="100%" stop-color="#5a6952"/>
    </linearGradient>
  </defs>
  <rect width="64" height="64" rx="14" fill="#f5f3ed"/>
  <path fill="url(#g)" d="M34 12c8 8 8 18-1 28s-16 10-17 7c-1-4 4-9 7-12 4-4 6-8 5-13-2 1-5 3-8 6-5 5-9 12-8 18 1 6 6 9 12 8 8-2 15-8 20-16 5-9 5-19-4-26-2-2-4-1-6 0z"/>
</svg>
